<svg xmlns="http://www.w3.org/2000/svg" xmlns:xlink="http://www.w3.org/1999/xlink" width="300" zoomAndPan="magnify" viewBox="0 0 224.87999 225" height="300" preserveAspectRatio="xMidYMid meet" version="1.0"><defs><clipPath id="id1"><path d="M 0 0.0585938 L 224.761719 0.0585938 L 224.761719 224.9375 L 0 224.9375 Z M 0 0.0585938 " clip-rule="nonzero"/></clipPath><clipPath id="id2"><path d="M 26.300781 26.359375 L 157 26.359375 L 157 157 L 26.300781 157 Z M 26.300781 26.359375 " clip-rule="nonzero"/></clipPath><clipPath id="id3"><path d="M 69.75 53.714844 L 127.46875 53.714844 L 127.46875 98.6875 L 69.75 98.6875 Z M 69.75 53.714844 " clip-rule="nonzero"/></clipPath></defs><g clip-path="url(#id1)"><path fill="#ffffff" d="M 0 0.0585938 L 224.878906 0.0585938 L 224.878906 232.4375 L 0 232.4375 Z M 0 0.0585938 " fill-opacity="1" fill-rule="nonzero"/><path fill="#ffffff" d="M 0 0.0585938 L 224.878906 0.0585938 L 224.878906 224.941406 L 0 224.941406 Z M 0 0.0585938 " fill-opacity="1" fill-rule="nonzero"/><path fill="#ffffff" d="M 0 0.0585938 L 224.878906 0.0585938 L 224.878906 224.941406 L 0 224.941406 Z M 0 0.0585938 " fill-opacity="1" fill-rule="nonzero"/><path fill="#ffffff" d="M 0 0.0585938 L 224.878906 0.0585938 L 224.878906 224.941406 L 0 224.941406 Z M 0 0.0585938 " fill-opacity="1" fill-rule="nonzero"/></g><path fill="#000000" d="M 126.585938 137.390625 L 137.328125 126.648438 L 159.136719 148.457031 L 148.394531 159.199219 Z M 126.585938 137.390625 " fill-opacity="1" fill-rule="nonzero"/><path fill="#000000" d="M 193.574219 170.710938 C 198.320312 175.457031 198.320312 183.15625 193.574219 187.910156 L 187.84375 193.636719 C 183.089844 198.386719 175.394531 198.386719 170.648438 193.636719 L 139.9375 162.914062 C 135.183594 158.160156 135.183594 150.464844 139.929688 145.71875 L 145.660156 139.988281 C 150.40625 135.242188 158.113281 135.242188 162.859375 139.988281 Z M 193.574219 170.710938 " fill-opacity="1" fill-rule="nonzero"/><g clip-path="url(#id2)"><path fill="#000000" d="M 91.535156 26.28125 C 55.457031 26.28125 26.21875 55.515625 26.21875 91.59375 C 26.21875 127.675781 55.457031 156.917969 91.535156 156.917969 C 127.613281 156.917969 156.855469 127.675781 156.855469 91.59375 C 156.855469 55.515625 127.613281 26.28125 91.535156 26.28125 Z M 91.535156 144.828125 C 62.125 144.828125 38.292969 121.003906 38.292969 91.59375 C 38.292969 62.1875 62.125 38.363281 91.535156 38.363281 C 120.945312 38.363281 144.773438 62.1875 144.773438 91.59375 C 144.773438 121.003906 120.945312 144.828125 91.535156 144.828125 Z M 91.535156 144.828125 " fill-opacity="1" fill-rule="nonzero"/></g><path fill="#000000" d="M 104.929688 123.925781 C 78.875 123.925781 57.738281 102.796875 57.738281 76.738281 C 57.738281 76.046875 57.8125 75.367188 57.84375 74.671875 C 54.402344 80.238281 52.386719 86.78125 52.386719 93.796875 C 52.386719 113.949219 68.722656 130.277344 88.867188 130.277344 C 96.648438 130.277344 103.835938 127.828125 109.769531 123.679688 C 108.175781 123.851562 106.558594 123.925781 104.929688 123.925781 Z M 104.929688 123.925781 " fill-opacity="1" fill-rule="nonzero"/><g clip-path="url(#id3)"><path fill="#000000" d="M 77.371094 98.6875 C 76.726562 98.6875 76.21875 98.164062 76.21875 97.535156 C 76.21875 94.210938 76.402344 91.660156 77.066406 89.585938 L 70.902344 89.585938 C 70.277344 89.585938 69.753906 89.0625 69.753906 88.429688 C 69.753906 85.355469 70.066406 83.492188 71.546875 82.007812 C 72.816406 80.734375 74.84375 79.917969 78.246094 78.972656 C 77.09375 78.117188 76.230469 76.59375 75.824219 74.886719 C 75.535156 73.707031 75.457031 72.429688 75.617188 71.210938 C 75.785156 69.949219 76.230469 68.726562 76.988281 67.769531 C 77.996094 66.480469 79.527344 65.652344 81.675781 65.652344 C 83.820312 65.652344 85.351562 66.480469 86.359375 67.769531 C 87.121094 68.726562 87.566406 69.949219 87.734375 71.210938 C 87.90625 72.429688 87.8125 73.707031 87.523438 74.886719 C 87.121094 76.59375 86.269531 78.117188 85.117188 78.972656 C 86.046875 79.222656 86.882812 79.484375 87.617188 79.734375 C 88.46875 80.023438 89.1875 80.3125 89.816406 80.628906 C 90.863281 80.300781 92 79.984375 93.21875 79.644531 L 93.21875 78.433594 C 90.808594 77.09375 88.992188 74.046875 88.152344 70.554688 C 87.617188 68.359375 87.460938 65.980469 87.761719 63.710938 C 88.074219 61.398438 88.875 59.203125 90.246094 57.457031 C 92.039062 55.199219 94.761719 53.714844 98.609375 53.714844 C 102.457031 53.714844 105.179688 55.199219 106.972656 57.457031 C 108.347656 59.203125 109.144531 61.398438 109.460938 63.710938 C 109.761719 65.980469 109.605469 68.359375 109.066406 70.554688 C 108.230469 74.046875 106.410156 77.09375 104.003906 78.433594 L 104.003906 79.644531 C 105.21875 79.984375 106.359375 80.300781 107.40625 80.628906 C 108.035156 80.3125 108.753906 80.023438 109.605469 79.734375 C 110.335938 79.484375 111.175781 79.234375 112.105469 78.972656 C 110.953125 78.117188 110.101562 76.59375 109.695312 74.886719 C 109.40625 73.707031 109.316406 72.429688 109.488281 71.210938 C 109.65625 69.949219 110.101562 68.726562 110.859375 67.769531 C 111.867188 66.480469 113.398438 65.652344 115.546875 65.652344 C 117.691406 65.652344 119.222656 66.480469 120.230469 67.769531 C 120.992188 68.726562 121.433594 69.949219 121.605469 71.210938 C 121.761719 72.429688 121.683594 73.707031 121.394531 74.886719 C 120.992188 76.59375 120.125 78.117188 118.976562 78.972656 C 122.378906 79.917969 124.40625 80.734375 125.675781 82.007812 C 127.15625 83.492188 127.46875 85.355469 127.46875 88.429688 C 127.46875 89.0625 126.945312 89.585938 126.316406 89.585938 L 120.152344 89.585938 C 120.820312 91.660156 121.003906 94.210938 121.003906 97.535156 C 121.003906 98.164062 120.492188 98.6875 119.851562 98.6875 Z M 118.6875 96.363281 C 118.632812 93.171875 118.359375 90.875 117.46875 89.113281 C 117.40625 89.019531 117.351562 88.917969 117.3125 88.8125 C 117.011719 88.257812 116.632812 87.746094 116.160156 87.289062 C 113.976562 85.09375 109.878906 83.621094 102.601562 81.664062 C 102.078125 81.558594 101.6875 81.085938 101.6875 80.535156 L 101.6875 77.699219 C 101.6875 77.238281 101.972656 76.804688 102.417969 76.621094 C 104.472656 75.820312 106.070312 73.167969 106.828125 70.015625 C 107.300781 68.082031 107.445312 65.996094 107.167969 64.023438 C 106.921875 62.105469 106.28125 60.292969 105.167969 58.902344 C 103.792969 57.167969 101.671875 56.039062 98.609375 56.039062 C 95.546875 56.039062 93.429688 57.167969 92.054688 58.902344 C 90.941406 60.292969 90.300781 62.105469 90.050781 64.023438 C 89.777344 65.996094 89.921875 68.082031 90.390625 70.015625 C 91.136719 73.140625 92.722656 75.769531 94.738281 76.59375 C 95.195312 76.753906 95.535156 77.1875 95.535156 77.699219 L 95.535156 80.535156 C 95.535156 81.046875 95.195312 81.507812 94.671875 81.652344 C 87.355469 83.621094 83.246094 85.082031 81.058594 87.289062 C 80.589844 87.746094 80.210938 88.257812 79.90625 88.8125 C 79.867188 88.917969 79.816406 89.019531 79.75 89.101562 C 78.859375 90.875 78.585938 93.171875 78.535156 96.363281 Z M 78.128906 87.261719 C 78.496094 86.695312 78.914062 86.15625 79.425781 85.660156 C 80.96875 84.109375 83.167969 82.914062 86.375 81.757812 C 85.550781 81.496094 84.605469 81.21875 83.519531 80.929688 C 83.011719 80.785156 82.667969 80.324219 82.667969 79.8125 L 82.667969 78.382812 C 82.667969 77.871094 82.996094 77.4375 83.453125 77.277344 C 84.292969 76.910156 84.960938 75.742188 85.289062 74.347656 C 85.507812 73.429688 85.574219 72.445312 85.457031 71.523438 C 85.339844 70.644531 85.050781 69.832031 84.554688 69.199219 C 83.964844 68.453125 83.035156 67.964844 81.675781 67.964844 C 80.328125 67.964844 79.382812 68.453125 78.796875 69.199219 C 78.296875 69.832031 78.011719 70.644531 77.894531 71.523438 C 77.773438 72.445312 77.839844 73.429688 78.0625 74.347656 C 78.402344 75.78125 79.097656 76.964844 79.949219 77.304688 C 80.40625 77.476562 80.679688 77.910156 80.679688 78.382812 L 80.679688 79.8125 C 80.679688 80.363281 80.289062 80.839844 79.765625 80.941406 C 76.191406 81.902344 74.203125 82.609375 73.179688 83.636719 C 72.410156 84.410156 72.148438 85.515625 72.082031 87.261719 Z M 110.847656 81.757812 C 114.054688 82.914062 116.253906 84.109375 117.796875 85.660156 C 118.308594 86.15625 118.726562 86.695312 119.09375 87.261719 L 125.140625 87.261719 C 125.074219 85.515625 124.8125 84.410156 124.039062 83.636719 C 123.019531 82.609375 121.03125 81.902344 117.457031 80.941406 C 116.933594 80.839844 116.539062 80.363281 116.539062 79.8125 L 116.539062 78.382812 C 116.539062 77.910156 116.816406 77.476562 117.273438 77.304688 C 118.125 76.964844 118.816406 75.78125 119.160156 74.347656 C 119.378906 73.441406 119.445312 72.445312 119.328125 71.523438 C 119.210938 70.644531 118.921875 69.832031 118.425781 69.199219 C 117.835938 68.453125 116.894531 67.964844 115.546875 67.964844 C 114.183594 67.964844 113.253906 68.453125 112.667969 69.199219 C 112.167969 69.832031 111.882812 70.644531 111.761719 71.523438 C 111.644531 72.445312 111.710938 73.429688 111.933594 74.347656 C 112.261719 75.742188 112.929688 76.910156 113.765625 77.277344 C 114.222656 77.4375 114.550781 77.871094 114.550781 78.382812 L 114.550781 79.8125 C 114.550781 80.324219 114.210938 80.785156 113.699219 80.929688 C 112.613281 81.21875 111.671875 81.496094 110.847656 81.757812 Z M 110.847656 81.757812 " fill-opacity="1" fill-rule="nonzero"/></g></svg>